<?xml version="1.0" encoding="UTF-8"?>
<svg id="Objects" xmlns="http://www.w3.org/2000/svg" xmlns:xlink="http://www.w3.org/1999/xlink" viewBox="0 0 500 500">
  <defs>
    <style>
      .cls-1 {
        fill: #f1f1f0;
      }

      .cls-1, .cls-2, .cls-3, .cls-4, .cls-5, .cls-6, .cls-7, .cls-8, .cls-9, .cls-10, .cls-11, .cls-12 {
        stroke-width: 0px;
      }

      .cls-13 {
        letter-spacing: 0em;
      }

      .cls-2 {
        filter: url(#drop-shadow-1);
      }

      .cls-2, .cls-9 {
        fill: #88cd96;
      }

      .cls-3, .cls-8 {
        fill: #cb4382;
      }

      .cls-4 {
        fill: url(#Degradado_sin_nombre_27);
      }

      .cls-14, .cls-6 {
        opacity: .8;
      }

      .cls-15 {
        fill: #f3f4e9;
        font-family: Montserrat-BlackItalic, 'Montserrat BlackItalic';
        font-size: 13.05px;
        font-style: italic;
        font-weight: 800;
      }

      .cls-5, .cls-6 {
        fill: #353d62;
      }

      .cls-7 {
        fill: url(#Degradado_sin_nombre_27-2);
        filter: url(#drop-shadow-2);
      }

      .cls-8 {
        filter: url(#drop-shadow-3);
      }

      .cls-10 {
        fill: url(#Degradado_sin_nombre_27-3);
      }

      .cls-11 {
        fill: #191c2c;
      }

      .cls-12 {
        fill: #7397fb;
      }
    </style>
    <linearGradient id="Degradado_sin_nombre_27" data-name="Degradado sin nombre 27" x1="102.22" y1="68.73" x2="116.66" y2="109.43" gradientUnits="userSpaceOnUse">
      <stop offset="0" stop-color="#8658ee"/>
      <stop offset=".99" stop-color="#5a49de"/>
    </linearGradient>
    <filter id="drop-shadow-1" filterUnits="userSpaceOnUse">
      <feOffset dx="7" dy="7"/>
      <feGaussianBlur result="blur" stdDeviation="5"/>
      <feFlood flood-color="#1f2026" flood-opacity=".35"/>
      <feComposite in2="blur" operator="in"/>
      <feComposite in="SourceGraphic"/>
    </filter>
    <linearGradient id="Degradado_sin_nombre_27-2" data-name="Degradado sin nombre 27" x1="63.72" y1="248.16" x2="105.27" y2="248.16" xlink:href="#Degradado_sin_nombre_27"/>
    <filter id="drop-shadow-2" filterUnits="userSpaceOnUse">
      <feOffset dx="7" dy="7"/>
      <feGaussianBlur result="blur-2" stdDeviation="5"/>
      <feFlood flood-color="#1f2026" flood-opacity=".35"/>
      <feComposite in2="blur-2" operator="in"/>
      <feComposite in="SourceGraphic"/>
    </filter>
    <linearGradient id="Degradado_sin_nombre_27-3" data-name="Degradado sin nombre 27" x1="396.69" y1="149.34" x2="409.44" y2="149.34" xlink:href="#Degradado_sin_nombre_27"/>
    <filter id="drop-shadow-3" filterUnits="userSpaceOnUse">
      <feOffset dx="7" dy="7"/>
      <feGaussianBlur result="blur-3" stdDeviation="5"/>
      <feFlood flood-color="#1f2026" flood-opacity=".35"/>
      <feComposite in2="blur-3" operator="in"/>
      <feComposite in="SourceGraphic"/>
    </filter>
  </defs>
  <g>
    <g class="cls-14">
      <path class="cls-5" d="M95.67,50.53c.71.42,1.2.46,1.55,2.34.79,4.22.19,7.77-2.1,11.41-.93,1.48-2.06,2.91-3.61,3.7-2.57,1.31-5.64.62-8.53.57-.31,0-.64,0-.89.18-.65.45-.26,1.46-.37,2.25-.16,1.26-1.73,2.19-1.46,3.44.17.78.98,1.2,1.56,1.75,1.14,1.1,1.34,3.03.45,4.34.8-1.11-.42-2.56-1.62-3.22-1.2-.65-2.7-1.41-2.71-2.77-.01-1.4,1.67-2.44,1.51-3.83-.1-.86-.9-1.48-1.74-1.69-.84-.2-1.71-.08-2.57-.01-1.68.13-3.37.03-5.02-.3-1.66-.33-3.46-1.05-4.12-2.61-.36-.86-.31-1.82-.24-2.75.19-2.5.48-5.03,1.44-7.35s2.68-4.42,5.01-5.34c1.46-.58,3.06-.67,4.63-.72,5.18-.19,8.82-.05,14.3-.14,0,0,3.28.02,4.53.76Z"/>
    </g>
    <text class="cls-15" transform="translate(73.02 64.95)"><tspan class="cls-13" x="0" y="0">H</tspan><tspan x="8.64" y="0">i!</tspan></text>
    <g>
      <path class="cls-4" d="M123.5,67.57c1,2.87,1.18,7.4,1.33,11.77.15,4.37.66,9.05,3.5,12.37,1.21,1.41,2.77,2.49,3.99,3.89,1.22,1.4,2.09,3.34,1.52,5.11-.67,2.06-3.05,3.09-5.21,3.1-2.16,0-4.24-.75-6.38-1.1-.49-.08-1.01-.14-1.46.07-2.21.98.82,4.57-.31,6.71-.97,1.84-3.73.91-5.54-.11-1.81-1.02-4.87-1.39-5.25.64-.18.93.42,1.82.61,2.75.49,2.5-2.35,4.66-4.89,4.4-2.54-.26-4.6-2.11-6.28-4.03-7.38-8.46-10.87-20.17-9.33-31.29.54-3.88,1.69-7.74,3.84-11.02,3.81-5.82,9.89-10.37,16.81-10.36,0,0,10.49-.2,13.04,7.11Z"/>
      <ellipse class="cls-11" cx="114.7" cy="124.47" rx="13.56" ry="1.29"/>
      <path class="cls-1" d="M104.36,78.8c.77.81,1.95.64,2.89.03.26-.17.49-.38.77-.51.31-.14.65-.16.98-.15.25.01.5.05.71.17.53.29.74.96.74,1.56,0,1.63-1.19,3.19-2.77,3.6-.69.18-1.43.16-2.14.07-.72-.09-1.45-.25-2.07-.62-1.16-.7-1.78-2.19-1.47-3.51.08-.34.23-.68.52-.86.39-.24.92-.32,1.35-.14,0,0,.28.14.48.34Z"/>
      <path class="cls-11" d="M101.13,77.27c-.09.01-.16-.29-.25-.71-.03-.12-.05-.22-.07-.32-.04-.1-.09-.19-.17-.27-.15-.17-.38-.3-.63-.31-.25-.01-.5.09-.66.24-.16.15-.26.36-.32.55-.11.4-.15.7-.24.7-.07,0-.2-.27-.18-.77.01-.25.08-.58.34-.87.25-.28.65-.48,1.1-.46.45.02.83.28,1.04.58.11.15.18.32.21.48,0,.13,0,.27.01.41,0,.49-.1.75-.18.76Z"/>
      <path class="cls-11" d="M112.91,77.27c-.09.01-.16-.29-.25-.71-.03-.12-.05-.22-.07-.32-.04-.1-.09-.19-.17-.27-.15-.17-.38-.3-.63-.31-.25-.01-.5.09-.66.24-.16.15-.26.36-.32.55-.11.4-.15.7-.24.7-.07,0-.2-.27-.18-.77.01-.25.08-.58.34-.87.25-.28.65-.48,1.1-.46.45.02.83.28,1.04.58.11.15.18.32.21.48,0,.13,0,.27.01.41,0,.49-.1.75-.18.76Z"/>
      <path class="cls-1" d="M95.97,77.96l1.25.17c.26.03.31.39.08.5l-1.12.52c-.08.04-.13.11-.15.19l-.28,1.42c-.05.25-.39.29-.5.06l-.63-1.36c-.04-.08-.12-.14-.21-.15l-1.19-.14c-.27-.03-.32-.39-.08-.5l1.16-.51c.08-.04.14-.11.15-.2l.19-1.33c.04-.26.39-.31.5-.07l.6,1.27c.04.08.11.14.2.15Z"/>
      <path class="cls-1" d="M117.33,73.82l.63.08c.13.02.16.2.04.25l-.56.26s-.07.05-.07.09l-.14.72c-.02.13-.2.15-.25.03l-.32-.68s-.06-.07-.1-.08l-.6-.07c-.13-.02-.16-.2-.04-.25l.58-.26s.07-.06.08-.1l.1-.67c.02-.13.2-.16.25-.04l.3.64s.06.07.1.08Z"/>
    </g>
    <path class="cls-6" d="M70.22,76.55l1.25.17c.26.03.31.39.08.5l-1.12.52c-.08.04-.13.11-.15.19l-.28,1.42c-.05.25-.39.29-.5.06l-.63-1.36c-.04-.08-.12-.14-.21-.15l-1.19-.14c-.27-.03-.32-.39-.08-.5l1.16-.51c.08-.04.14-.11.15-.2l.19-1.33c.04-.26.39-.31.5-.07l.6,1.27c.04.08.11.14.2.15Z"/>
    <path class="cls-6" d="M136.49,53.35l1.25.17c.26.03.31.39.08.5l-1.12.52c-.08.04-.13.11-.15.19l-.28,1.42c-.05.25-.39.29-.5.06l-.63-1.36c-.04-.08-.12-.14-.21-.15l-1.19-.14c-.27-.03-.32-.39-.08-.5l1.16-.51c.08-.04.14-.11.15-.2l.19-1.33c.04-.26.39-.31.5-.07l.6,1.27c.04.08.11.14.2.15Z"/>
    <path class="cls-6" d="M102.37,52.56l.63.08c.13.02.16.19.04.25l-.56.26s-.07.05-.07.09l-.14.71c-.02.13-.2.15-.25.03l-.32-.68s-.06-.07-.1-.08l-.6-.07c-.13-.02-.16-.2-.04-.25l.58-.26s.07-.06.08-.1l.1-.67c.02-.13.19-.16.25-.04l.3.64s.06.07.1.07Z"/>
    <path class="cls-6" d="M131.29,81.26l.63.08c.13.02.16.19.04.25l-.56.26s-.07.05-.07.09l-.14.71c-.02.13-.2.15-.25.03l-.32-.68s-.06-.07-.1-.08l-.6-.07c-.13-.02-.16-.2-.04-.25l.58-.26s.07-.06.08-.1l.1-.67c.02-.13.19-.16.25-.04l.3.64s.06.07.1.07Z"/>
    <path class="cls-12" d="M80.73,41.73l1.03.14c.21.03.26.32.06.41l-.92.43c-.06.03-.11.09-.12.16l-.23,1.17c-.04.21-.32.24-.41.05l-.52-1.12c-.03-.07-.1-.12-.17-.12l-.98-.12c-.22-.03-.26-.32-.06-.41l.96-.42c.07-.03.12-.09.13-.17l.16-1.1c.03-.21.32-.26.41-.06l.49,1.05c.03.07.09.11.17.12Z"/>
    <path class="cls-3" d="M140.49,71.3l1.2.16c.25.03.3.37.07.48l-1.07.5c-.07.03-.13.1-.14.18l-.26,1.36c-.05.24-.37.28-.48.06l-.6-1.3c-.04-.08-.11-.13-.2-.14l-1.13-.14c-.25-.03-.31-.38-.07-.48l1.11-.49c.08-.04.13-.11.15-.19l.18-1.28c.04-.25.37-.3.48-.07l.57,1.22c.04.08.11.13.19.14Z"/>
    <path class="cls-9" d="M86.27,104.17l.63.08c.13.02.16.19.04.25l-.56.26s-.07.05-.07.09l-.14.71c-.02.13-.2.15-.25.03l-.32-.68s-.06-.07-.1-.08l-.6-.07c-.13-.02-.16-.2-.04-.25l.58-.26s.07-.06.08-.1l.1-.67c.02-.13.19-.16.25-.04l.3.64s.06.07.1.07Z"/>
    <path class="cls-9" d="M115.07,43.86l.63.08c.13.02.16.19.04.25l-.56.26s-.07.05-.07.09l-.14.71c-.02.13-.2.15-.25.03l-.32-.68s-.06-.07-.1-.08l-.6-.07c-.13-.02-.16-.2-.04-.25l.58-.26s.07-.06.08-.1l.1-.67c.02-.13.19-.16.25-.04l.3.64s.06.07.1.07Z"/>
  </g>
  <g>
    <path class="cls-6" d="M56.38,191.72l3.56.48c.74.1.9,1.11.22,1.42l-3.18,1.48c-.22.1-.37.3-.42.54l-.79,4.05c-.14.71-1.11.83-1.42.17l-1.79-3.88c-.11-.24-.33-.4-.59-.43l-3.38-.4c-.76-.09-.91-1.12-.21-1.43l3.31-1.47c.24-.1.4-.32.44-.58l.54-3.8c.11-.74,1.11-.89,1.42-.21l1.7,3.63c.11.23.33.39.58.43Z"/>
    <path class="cls-6" d="M424.42,99.48l1.39,3.32c.29.69-.5,1.33-1.12.91l-2.89-2c-.2-.14-.45-.17-.67-.09l-3.9,1.37c-.69.24-1.28-.54-.86-1.14l2.44-3.5c.15-.21.18-.49.07-.73l-1.36-3.12c-.3-.7.51-1.35,1.13-.91l2.94,2.12c.21.15.48.18.72.09l3.55-1.45c.69-.28,1.32.51.9,1.12l-2.27,3.29c-.14.21-.17.48-.07.71Z"/>
    <path class="cls-6" d="M449.53,253.75l1.39,3.32c.29.69-.5,1.33-1.12.91l-2.89-2c-.2-.14-.45-.17-.67-.09l-3.9,1.37c-.69.24-1.28-.54-.86-1.14l2.44-3.5c.15-.21.18-.49.07-.73l-1.36-3.12c-.3-.7.51-1.35,1.13-.91l2.94,2.12c.21.15.48.18.72.09l3.55-1.45c.69-.28,1.32.51.9,1.12l-2.27,3.29c-.14.21-.17.48-.07.71Z"/>
    <path class="cls-6" d="M196.56,48.91l1.39,3.32c.29.69-.5,1.33-1.12.91l-2.89-2c-.2-.14-.45-.17-.67-.09l-3.9,1.37c-.69.24-1.28-.54-.86-1.14l2.44-3.5c.15-.21.18-.49.07-.73l-1.36-3.12c-.3-.7.51-1.35,1.13-.91l2.94,2.12c.21.15.48.18.72.09l3.55-1.45c.69-.28,1.32.51.9,1.12l-2.27,3.29c-.14.21-.17.48-.07.71Z"/>
    <path class="cls-12" d="M448.37,206.67l-4.15,7.09c-.86,1.48-3.12.91-3.19-.8l-.32-8.01c-.02-.55-.3-1.05-.76-1.36l-7.85-5.24c-1.38-.92-.77-3.08.89-3.13l9.75-.34c.59-.02,1.14-.35,1.43-.87l3.83-6.76c.86-1.51,3.17-.93,3.2.81l.16,8.27c.01.59.33,1.13.83,1.44l7.53,4.5c1.46.87.89,3.11-.81,3.18l-9.14.37c-.58.02-1.11.34-1.41.84Z"/>
    <path class="cls-2" d="M388.92,346.64l2.28,5.46c.48,1.14-.82,2.19-1.84,1.49l-4.75-3.28c-.32-.22-.74-.28-1.11-.15l-6.41,2.25c-1.13.4-2.1-.89-1.42-1.87l4.02-5.76c.25-.35.29-.81.12-1.2l-2.23-5.13c-.5-1.15.83-2.23,1.85-1.49l4.83,3.48c.34.25.79.3,1.19.14l5.85-2.39c1.13-.46,2.18.83,1.48,1.84l-3.74,5.42c-.24.35-.28.79-.12,1.18Z"/>
    <path class="cls-7" d="M91.42,241.43l11.71,1.57c2.44.33,2.94,3.63.71,4.67l-10.45,4.88c-.71.33-1.23.99-1.38,1.76l-2.58,13.32c-.45,2.35-3.65,2.73-4.65.56l-5.87-12.74c-.36-.78-1.09-1.31-1.94-1.41l-11.09-1.32c-2.48-.3-2.99-3.68-.71-4.69l10.88-4.82c.78-.34,1.32-1.06,1.44-1.9l1.78-12.48c.35-2.42,3.63-2.91,4.67-.69l5.57,11.91c.36.76,1.07,1.29,1.9,1.4Z"/>
    <path class="cls-6" d="M368.81,377.6l7.15.96c1.49.2,1.8,2.22.44,2.85l-6.38,2.98c-.44.2-.75.6-.84,1.08l-1.58,8.13c-.28,1.43-2.23,1.67-2.84.34l-3.58-7.78c-.22-.47-.67-.8-1.19-.86l-6.77-.81c-1.52-.18-1.83-2.25-.43-2.87l6.64-2.94c.47-.21.81-.65.88-1.16l1.09-7.62c.21-1.48,2.22-1.78,2.85-.42l3.4,7.27c.22.46.65.79,1.16.85Z"/>
    <path class="cls-3" d="M136.89,448.46l3.6.48c.75.1.9,1.11.22,1.43l-3.21,1.5c-.22.1-.38.3-.42.54l-.79,4.09c-.14.72-1.12.84-1.43.17l-1.8-3.91c-.11-.24-.34-.4-.6-.43l-3.41-.41c-.76-.09-.92-1.13-.22-1.44l3.34-1.48c.24-.11.41-.33.44-.58l.55-3.83c.11-.74,1.11-.89,1.43-.21l1.71,3.66c.11.23.33.39.58.43Z"/>
    <path class="cls-9" d="M47.94,293.56l3.6.48c.75.1.9,1.11.22,1.43l-3.21,1.5c-.22.1-.38.3-.42.54l-.79,4.09c-.14.72-1.12.84-1.43.17l-1.8-3.91c-.11-.24-.34-.4-.6-.43l-3.41-.41c-.76-.09-.92-1.13-.22-1.44l3.34-1.48c.24-.11.41-.33.44-.58l.55-3.83c.11-.74,1.11-.89,1.43-.21l1.71,3.66c.11.23.33.39.58.43Z"/>
    <path class="cls-10" d="M405.19,147.28l3.6.48c.75.1.9,1.11.22,1.43l-3.21,1.5c-.22.1-.38.3-.42.54l-.79,4.09c-.14.72-1.12.84-1.43.17l-1.8-3.91c-.11-.24-.34-.4-.6-.43l-3.41-.41c-.76-.09-.92-1.13-.22-1.44l3.34-1.48c.24-.11.41-.33.44-.58l.55-3.83c.11-.74,1.11-.89,1.43-.21l1.71,3.66c.11.23.33.39.58.43Z"/>
    <path class="cls-8" d="M278.86,57.39l6.49.87c1.35.18,1.63,2.01.4,2.59l-5.79,2.7c-.4.18-.68.55-.76.98l-1.43,7.39c-.25,1.3-2.02,1.52-2.58.31l-3.26-7.06c-.2-.43-.61-.73-1.08-.78l-6.15-.73c-1.38-.16-1.66-2.04-.39-2.6l6.03-2.67c.43-.19.73-.59.8-1.05l.99-6.92c.19-1.34,2.01-1.61,2.59-.38l3.09,6.61c.2.42.59.71,1.06.77Z"/>
    <path class="cls-6" d="M110.7,418.05l1.81.24c.38.05.45.56.11.72l-1.61.75c-.11.05-.19.15-.21.27l-.4,2.06c-.07.36-.56.42-.72.09l-.91-1.97c-.06-.12-.17-.2-.3-.22l-1.71-.2c-.38-.05-.46-.57-.11-.73l1.68-.74c.12-.05.2-.16.22-.29l.28-1.93c.05-.37.56-.45.72-.11l.86,1.84c.05.12.17.2.29.22Z"/>
  </g>
</svg>